<?xml version="1.0" standalone="no"?><!DOCTYPE svg PUBLIC "-//W3C//DTD SVG 1.1//EN" "http://www.w3.org/Graphics/SVG/1.1/DTD/svg11.dtd"><svg t="1592798462439" class="icon" viewBox="0 0 1048 1024" version="1.1" xmlns="http://www.w3.org/2000/svg" p-id="3765" xmlns:xlink="http://www.w3.org/1999/xlink" width="16.375" height="16"><defs><style type="text/css"></style></defs><path d="M1002.772267 679.993732c-24.842081-54.597979-58.653829-111.574871-99.758308-168.746755 40.870487-57.327878 74.448245-114.460764 99.095332-169.13674 59.238808-131.503133 60.174773-236.565245 2.690901-295.88205-57.483873-59.316805-162.545984-61.61772-295.804053-6.512759-59.628793 24.647088-122.377471 59.589795-185.399138 102.761197-63.21666-42.937411-126.121332-77.607128-185.828123-102.020224-133.492059-54.597979-238.554171-51.829082-295.804052 7.682715-57.249881 59.511797-55.884932 164.612908 3.860857 295.843051 24.842081 54.597979 58.692828 111.574871 99.758308 168.746755-40.870487 57.327878-74.448245 114.460764-99.095332 169.13674-59.238808 131.503133-60.174773 236.565245-2.690901 295.88205 29.872894 30.80886 72.537315 46.21329 125.341361 46.213289 48.865192 0 106.427061-13.220511 170.50169-39.70053 59.628793-24.647088 122.377471-59.589795 185.399138-102.761197 63.21666 42.937411 126.082334 77.607128 185.828123 102.020224 63.723642 26.051036 120.934524 39.037555 169.565724 39.037555 53.272028 0 96.287436-15.599423 126.19933-46.72027 57.249881-59.472799 55.884932-164.573909-3.860857-295.843051zM735.788148 104.609026c55.143959-22.814156 104.399136-34.279731 143.553687-34.279731 33.109775 0 58.965818 8.228695 75.033223 24.803082 50.230141 51.829082 16.808378 192.847863-96.014447 357.577766-40.324508-50.074147-85.757826-99.719309-135.324991-147.375545-45.12133-43.405394-91.763604-83.378914-138.756865-119.101592 51.751085-33.889746 102.839194-61.539722 151.509393-81.62398z m-60.759752 562.905167c-50.425134 48.90419-101.006262 91.568611-150.144443 128.032262-50.815119-37.399616-101.630239-80.220031-150.690423-127.447283-54.129997-52.063073-101.201255-104.516132-141.057779-155.526244 40.987483-52.843044 88.292732-105.491096 140.433802-156.072224 48.90419-47.383246 99.485318-90.437653 150.183442-128.032262 49.333174 36.268658 100.031298 78.738086 150.690423 127.408285 52.375062 50.347137 99.875304 102.878193 141.05778 155.526244-39.700531 51.205105-86.537797 103.814158-140.472802 156.111222zM92.545954 96.809315c16.2234-16.886375 42.15744-25.271065 75.540204-25.271065 71.445356 0 177.092446 38.569573 294.868087 114.967745-46.837267 35.917671-93.323546 76.047186-138.288882 119.647572C275.371188 353.926799 230.093863 403.727956 189.964348 453.997096 76.517547 289.696176 42.510806 148.83339 92.545954 96.809315z m1.637939 832.112204c-35.059702-36.151662-28.936929-117.736643 16.301397-218.196925 20.279249-45.004334 47.227252-91.958597 79.71305-139.380841 40.324508 50.074147 85.757826 99.719309 135.324991 147.375545 45.12133 43.405394 91.802602 83.378914 138.756865 119.140591-172.37362 112.705829-318.891198 143.865676-370.096303 91.06163z m861.829104-1.715937c-34.903708 36.307656-116.644683 33.070776-218.625908-8.618681-48.748196-19.928262-99.953301-47.344248-151.821382-81.000002 46.837267-35.917671 93.323546-76.086184 138.288882-119.647572 49.333174-47.851229 94.610498-97.652386 134.740014-147.882527 32.68079 47.305249 59.823786 94.142516 80.259029 139.068853 45.66731 100.265289 52.063073 181.811271 17.159365 218.079929z" fill="#556FB5" p-id="3766"></path><path d="M524.064984 527.002394m-78.816084 0a78.816083 78.816083 0 1 0 157.632167 0 78.816083 78.816083 0 1 0-157.632167 0Z" fill="#F19149" p-id="3767"></path></svg>