<?xml version="1.0" standalone="no"?><!DOCTYPE svg PUBLIC "-//W3C//DTD SVG 1.1//EN" "http://www.w3.org/Graphics/SVG/1.1/DTD/svg11.dtd"><svg t="1586962833743" class="icon" viewBox="0 0 1024 1024" version="1.1" xmlns="http://www.w3.org/2000/svg" p-id="3209" xmlns:xlink="http://www.w3.org/1999/xlink" width="16" height="16"><defs><style type="text/css"></style></defs><path d="M484.032 484.032h-336A84.096 84.096 0 0 1 64 400V64h336c46.4 0 83.968 37.632 84.032 84.032v336zM120 120V400c0 15.488 12.544 27.968 28.032 28.032h279.936V148.032a28.032 28.032 0 0 0-27.968-28.032H120zM484.032 960h-336A84.096 84.096 0 0 1 64 875.968v-336h336c46.4 0.064 83.968 37.632 84.032 84.032V960zM120 595.968v280.064c0 15.424 12.544 27.968 28.032 27.968h279.936V624a28.032 28.032 0 0 0-27.968-28.032H120zM960 960H624a84.096 84.096 0 0 1-84.032-84.032v-336h336C922.368 540.032 960 577.6 960 624V960zM595.968 595.968v280.064c0 15.424 12.544 27.968 28.032 27.968h280V624a28.032 28.032 0 0 0-28.032-28.032H596.096z" fill="#1296db" p-id="3210"></path><path d="M720.32 872.768l-99.008-98.944a27.968 27.968 0 0 1 39.616-39.616l59.392 59.392 118.784-118.784a28.032 28.032 0 0 1 39.552 39.616l-158.336 158.336z m211.648-752.768H568a27.968 27.968 0 1 1 0-56h364.032a27.968 27.968 0 1 1 0 56z m0 168H568a27.968 27.968 0 1 1 0-56h364.032a27.968 27.968 0 1 1 0 56z m0 196.032H568a27.968 27.968 0 1 1 0-56h364.032a27.968 27.968 0 1 1 0 56z" fill="#1296db" p-id="3211"></path></svg>